<svg xmlns="http://www.w3.org/2000/svg" xmlns:xlink="http://www.w3.org/1999/xlink" width="162.7" height="19.9" x="0" y="0" version="1.1" viewBox="0 0 162.7 19.9" style="enable-background:new 0 0 162.7 19.9" xml:space="preserve"><style type="text/css">.st0{fill:#fff}</style><g id="Layer_1"><g><g><path d="M16.4,6.3L16.4,6.3V0.5c0-0.2-0.1-0.4-0.3-0.5c-0.2-0.1-0.4-0.1-0.6,0l-5,2.9l0,0c-0.3,0.2-0.3,0.5-0.2,0.7 L12,6.6c0.1,0.2,0.3,0.3,0.5,0.3h3.4C16.2,6.9,16.4,6.6,16.4,6.3z" class="st0"/><path d="M11.5,11l5-2.9l0,0c0.3-0.2,0.6-0.1,0.7,0.2l1.7,2.9c0.1,0.2,0.1,0.4,0,0.6l-1.7,2.9 c-0.2,0.3-0.5,0.3-0.7,0.2l0,0l-5-2.9c-0.2-0.1-0.3-0.3-0.3-0.5C11.3,11.3,11.4,11.1,11.5,11z" class="st0"/><path d="M15.9,15.9L15.9,15.9l-5-2.9c-0.2-0.1-0.4-0.1-0.6,0c-0.2,0.1-0.3,0.3-0.3,0.5v5.8l0,0 c0,0.3,0.2,0.6,0.6,0.6H14c0.2,0,0.4-0.1,0.5-0.3l1.7-2.9C16.3,16.4,16.2,16.1,15.9,15.9z" class="st0"/><path d="M3.1,15.9L3.1,15.9l5-2.9c0.2-0.1,0.4-0.1,0.6,0c0.2,0.1,0.3,0.3,0.3,0.5v5.8l0,0c0,0.3-0.2,0.6-0.6,0.6H5 c-0.2,0-0.4-0.1-0.5-0.3l-1.7-2.9C2.7,16.4,2.8,16.1,3.1,15.9z" class="st0"/><path d="M3.1,7.1L3.1,7.1l5,2.9c0.2,0.1,0.4,0.1,0.6,0c0.2-0.1,0.3-0.3,0.3-0.5V3.7l0,0c0-0.3-0.2-0.6-0.6-0.6H5 c-0.2,0-0.4,0.1-0.5,0.3L2.8,6.3C2.7,6.6,2.8,6.9,3.1,7.1z" class="st0"/><path d="M7.5,11l-5-2.9l0,0C2.2,8,1.9,8.1,1.8,8.4l-1.7,2.9c-0.1,0.2-0.1,0.4,0,0.6l1.7,2.9c0.2,0.3,0.5,0.3,0.7,0.2 l0,0l5-2.9c0.2-0.1,0.3-0.3,0.3-0.5C7.8,11.3,7.7,11.1,7.5,11z" class="st0"/></g><path d="M31.2,19.7H22V2.9h3.2V17h6V19.7z" class="st0"/><path d="M45.7,19.7h-3.4l-1.2-4.4h-4.5l-1.1,4.4h-3.3l4.8-16.8h4L45.7,19.7z M40.6,12.8l-1-3.8 c-0.3-1-0.5-2.4-0.8-3.4h-0.1c-0.2,1-0.5,2.4-0.8,3.4l-1,3.8L40.6,12.8L40.6,12.8z" class="st0"/><path d="M58.6,2.9l-5,9.8v6.9h-3.2v-6.8l-4.8-10h3.6L50.9,7c0.5,1.2,0.9,2.2,1.3,3.4h0.1C52.6,9.3,53,8.2,53.5,7 l1.6-4.1H58.6z" class="st0"/><path d="M71.9,19.7h-3.4l-1.2-4.4h-4.5l-1.1,4.4h-3.3l4.8-16.8h4L71.9,19.7z M66.9,12.8l-1-3.8 c-0.3-1-0.5-2.4-0.8-3.4H65c-0.2,1-0.5,2.4-0.8,3.4l-1,3.8L66.9,12.8L66.9,12.8z" class="st0"/><path d="M82,11.8c1.2,0.4,1.9,1.6,2.2,3.3c0.5,2,0.9,4,1.3,4.6h-3.3c-0.2-0.5-0.7-2-1-4c-0.4-2.2-1.1-2.8-2.6-2.8 h-1.1v6.8h-3.2V3.1c1.1-0.2,2.7-0.3,4.3-0.3c2.1,0,6.4,0.3,6.4,4.8c0,2.1-1.3,3.6-2.9,4.2V11.8z M78.7,10.5c1.9,0,3-1.1,3-2.7 c0-2.2-1.6-2.6-2.8-2.6c-0.7,0-1.2,0.1-1.5,0.1v5.1H78.7z" class="st0"/><path d="M99.6,19.7h-3.7L92,12.3L90.7,14v5.7h-3.2V2.9h3.2v7.6h0.1c0.3-0.7,0.7-1.3,1.1-1.9l3.6-5.7h3.8l-5.1,7.2 L99.6,19.7z" class="st0"/><path d="M113.5,19.7h-3.4l-1.2-4.4h-4.5l-1.1,4.4H100l4.8-16.8h4L113.5,19.7z M108.4,12.8l-1-3.8 c-0.3-1-0.5-2.4-0.8-3.4h-0.1c-0.2,1-0.5,2.4-0.8,3.4l-1,3.8L108.4,12.8L108.4,12.8z" class="st0"/><path d="M126.4,19.3c-0.7,0.3-2,0.7-3.7,0.7c-5,0-7.9-3.4-7.9-8.4c0-5.9,3.8-8.9,8.3-8.9c1.8,0,3,0.4,3.5,0.7 l-0.7,2.6c-0.7-0.3-1.5-0.5-2.7-0.5c-2.8,0-5,1.9-5,6c0,3.8,2,5.8,5,5.8c1,0,2.1-0.2,2.7-0.5L126.4,19.3z" class="st0"/><path d="M141.1,19.7h-3.4l-1.2-4.4H132l-1.1,4.4h-3.3l4.8-16.8h4L141.1,19.7z M136.1,12.8l-1-3.8 c-0.3-1-0.5-2.4-0.8-3.4h-0.1c-0.2,1-0.5,2.4-0.8,3.4l-1,3.8L136.1,12.8L136.1,12.8z" class="st0"/><path d="M152.9,19.7h-10.3v-2l1.9-2c3.1-3.2,5-5.4,5-7.6c0-1.4-0.8-2.6-2.6-2.6c-1.2,0-2.3,0.7-3.1,1.2l-0.9-2.3 c1-0.8,2.7-1.5,4.6-1.5c3.6,0,5.1,2.2,5.1,4.9c0,3-2,5.4-4.4,7.8L147,17v0.1h6.1v2.6H152.9z" class="st0"/><path d="M159.6,19.7V6h-0.1l-2.8,1.5L156,5.2l4-2.1h2.7v16.5L159.6,19.7L159.6,19.7z" class="st0"/></g></g></svg>